<svg xmlns="http://www.w3.org/2000/svg" style="display: none;"><symbol id="linkedin" viewBox="0 0 112.196 112.196"><title>linkedin</title><circle style="fill:#007AB9;" cx="56.098" cy="56.097" r="56.098"/><g> <path style="fill:#F1F2F2;" d="M89.616,60.611v23.128H76.207V62.161c0-5.418-1.936-9.118-6.791-9.118 c-3.705,0-5.906,2.491-6.878,4.903c-0.353,0.862-0.444,2.059-0.444,3.268v22.524H48.684c0,0,0.18-36.546,0-40.329h13.411v5.715 c-0.027,0.045-0.065,0.089-0.089,0.132h0.089v-0.132c1.782-2.742,4.96-6.662,12.085-6.662 C83.002,42.462,89.616,48.226,89.616,60.611L89.616,60.611z M34.656,23.969c-4.587,0-7.588,3.011-7.588,6.967 c0,3.872,2.914,6.97,7.412,6.97h0.087c4.677,0,7.585-3.098,7.585-6.97C42.063,26.98,39.244,23.969,34.656,23.969L34.656,23.969z M27.865,83.739H41.27V43.409H27.865V83.739z"/> </g></symbol><symbol id="gorjeo" viewBox="0 0 112.197 112.197"><title>gorjeo</title><circle style="fill:#55ACEE;" cx="56.099" cy="56.098" r="56.098"/><g> <path style="fill:#F1F2F2;" d="M90.461,40.316c-2.404,1.066-4.99,1.787-7.702,2.109c2.769-1.659,4.894-4.284,5.897-7.417 c-2.591,1.537-5.462,2.652-8.515,3.253c-2.446-2.605-5.931-4.233-9.79-4.233c-7.404,0-13.409,6.005-13.409,13.409 c0,1.051,0.119,2.074,0.349,3.056c-11.144-0.559-21.025-5.897-27.639-14.012c-1.154,1.98-1.816,4.285-1.816,6.742 c0,4.651,2.369,8.757,5.965,11.161c-2.197-0.069-4.266-0.672-6.073-1.679c-0.001,0.057-0.001,0.114-0.001,0.17 c0,6.497,4.624,11.916,10.757,13.147c-1.124,0.308-2.311,0.471-3.532,0.471c-0.866,0-1.705-0.083-2.523-0.239 c1.706,5.326,6.657,9.203,12.526,9.312c-4.59,3.597-10.371,5.74-16.655,5.74c-1.08,0-2.15-0.063-3.197-0.188 c5.931,3.806,12.981,6.025,20.553,6.025c24.664,0,38.152-20.432,38.152-38.153c0-0.581-0.013-1.16-0.039-1.734 C86.391,45.366,88.664,43.005,90.461,40.316L90.461,40.316z"/> </g></symbol><symbol id="facebook" viewBox="0 0 112.196 112.196"><title>facebook</title><circle style="fill:#3B5998;" cx="56.098" cy="56.098" r="56.098"/><path style="fill:#FFFFFF;" d="M70.201,58.294h-10.01v36.672H45.025V58.294h-7.213V45.406h7.213v-8.34 c0-5.964,2.833-15.303,15.301-15.303L71.56,21.81v12.51h-8.151c-1.337,0-3.217,0.668-3.217,3.513v7.585h11.334L70.201,58.294z"/></symbol><symbol id="logo-de-github-social" viewBox="0 0 536.11 536.11"><title>logo-de-github-social</title><path style="fill:#010002;" d="M267.75,0c37.128,0,71.91,7.038,104.345,21.114c32.439,14.076,60.793,33.252,85.068,57.528 c24.277,24.276,43.453,52.632,57.529,85.068c14.072,32.436,21.111,67.218,21.111,104.346c0,37.127-7.039,71.911-21.111,104.346 c-14.076,32.438-33.252,60.791-57.529,85.068c-24.275,24.275-52.631,43.451-85.068,57.527 c-32.436,14.076-67.217,21.113-104.345,21.113s-71.91-7.037-104.346-21.111c-32.436-14.076-60.792-33.252-85.068-57.527 c-24.276-24.277-43.35-52.633-57.222-85.068C7.242,339.967,0.306,305.184,0.306,268.056s6.936-71.91,20.808-104.346 s32.946-60.792,57.222-85.068s52.632-43.452,85.068-57.528S230.622,0,267.75,0z M267.75,29.376 c-33.048,0-64.056,6.222-93.024,18.666S120.462,77.52,98.838,99.144s-38.658,46.92-51.102,75.888S29.07,235.008,29.07,268.056 c0,33.047,6.222,64.055,18.666,93.024c12.444,28.969,29.478,54.264,51.102,75.889c21.624,21.623,46.92,38.658,75.888,51.102 c28.968,12.443,59.976,18.666,93.024,18.666s64.056-6.223,93.025-18.666c28.967-12.441,54.264-29.479,75.887-51.102 c21.625-21.625,38.658-46.92,51.102-75.889c12.445-28.971,18.666-59.979,18.666-93.024c0-33.046-6.221-64.056-18.666-93.024 c-12.441-28.968-29.477-54.264-51.102-75.888c-21.623-21.624-46.92-38.658-75.887-51.102 C331.806,35.598,300.798,29.376,267.75,29.376z M336.294,312.121c25.703-8.979,38.555-25.908,38.555-50.797 c0-13.056-2.141-23.358-6.426-30.906c-4.283-7.548-11.117-13.77-20.502-18.666c-4.488-2.448-9.791-3.876-15.912-4.284 c-6.119-0.408-12.645-0.51-19.584-0.306c-6.936,0.204-14.277,0.612-22.031,1.224c-7.752,0.612-15.504,0.918-23.254,0.918 c-7.752,0-15.504-0.306-23.256-0.918s-15.096-1.02-22.032-1.224s-13.464-0.102-19.584,0.306s-11.424,1.836-15.912,4.284 c-9.384,4.896-16.116,11.118-20.196,18.666s-6.12,17.85-6.12,30.906c0,24.889,12.852,41.82,38.556,50.797 c4.488,1.223,9.384,2.445,14.688,3.672c4.488,0.813,10.098,1.631,16.83,2.445c6.732,0.816,14.586,1.227,23.562,1.227h26.927 c8.568,0,16.32-0.408,23.26-1.227c6.936-0.814,12.852-1.633,17.748-2.445C327.318,314.568,332.214,313.344,336.294,312.121z M409.734,223.38c0,13.056-1.43,25.398-4.283,37.026c-2.857,11.625-8.16,22.135-15.912,31.518 c-7.752,9.385-18.463,17.137-32.131,23.256c-13.668,6.121-31.109,9.996-52.326,11.629c3.264,1.631,7.447,3.672,12.547,6.119 c5.1,2.449,9.486,7.141,13.158,14.076c2.039,4.486,3.365,11.016,3.977,19.584c0.613,8.566,0.918,17.34,0.918,26.314 c0,8.979-0.102,17.238-0.305,24.785c-0.205,7.549,0.102,12.141,0.918,13.771c1.631,3.264,3.979,6.119,7.037,8.566 c3.061,2.447,5.611,4.283,7.65,5.508c2.039,1.227,2.65,2.756,1.836,4.592c-0.816,1.836-3.672,2.959-8.568,3.363 c-2.447,0-5.508-0.404-9.18-1.223c-3.672-0.816-7.143-2.244-10.404-4.285c-3.262-2.039-6.018-4.59-8.262-7.646 c-2.244-3.063-3.365-7.039-3.365-11.938v-50.184c0-5.711-1.326-9.791-3.98-12.24c-2.648-2.447-5.402-4.08-8.262-4.895v66.096 c0,11.832,1.428,19.584,4.285,23.256c1.223,1.633,2.346,3.367,3.365,5.203s1.633,3.365,1.836,4.59 c0.205,1.223-0.51,1.938-2.145,2.143c-1.631,0.203-4.689-0.307-9.18-1.529c-8.568-2.039-14.688-6.732-18.359-14.076 s-5.508-15.096-5.508-23.256v-64.871h-13.461v64.871c0,8.16-1.734,15.912-5.202,23.256s-9.69,12.037-18.666,14.076 c-4.488,1.225-7.446,1.732-8.874,1.529c-1.428-0.203-2.142-0.92-2.142-2.143c0-1.225,0.612-2.754,1.836-4.59 s2.448-3.57,3.672-5.203c0.816-1.631,1.734-4.488,2.754-8.568c1.02-4.078,1.53-8.975,1.53-14.688v-66.096 c-2.856,0.814-5.508,2.445-7.956,4.896c-2.448,2.447-3.672,6.527-3.672,12.24v50.184c0,4.896-1.122,8.873-3.366,11.936 c-2.244,3.061-4.998,5.607-8.262,7.648c-3.264,2.039-6.732,3.471-10.404,4.283c-3.672,0.816-6.732,1.225-9.18,1.225 c-4.896-0.406-7.752-1.527-8.568-3.363s-0.204-3.367,1.836-4.59c2.04-1.227,4.59-3.063,7.65-5.512 c3.06-2.445,5.406-5.303,7.038-8.564c0.816-2.041,1.122-7.447,0.918-16.221c-0.204-8.771-0.306-18.463-0.306-29.068 c-3.264,1.225-7.548,2.041-12.852,2.449c-5.304,0.404-11.22,0-17.748-1.227c-11.016-2.041-19.38-5.607-25.092-10.711 c-5.712-5.1-11.22-13.158-16.524-24.174c-2.856-5.303-6.018-9.689-9.486-13.158c-3.468-3.467-6.528-6.221-9.18-8.262 c-2.652-2.039-4.692-3.773-6.12-5.201c-1.428-1.428-1.53-2.754-0.306-3.979c2.448-2.855,5.814-4.08,10.098-3.674 c4.284,0.408,6.834,1.021,7.65,1.836c4.896,2.039,9.792,6.324,14.688,12.854c4.896,6.531,9.996,12.037,15.3,16.523 c2.448,2.039,5.508,4.078,9.18,6.119c3.672,2.039,7.752,3.471,12.24,4.283c4.488,0.816,9.384,0.816,14.688,0 c5.304-0.813,10.608-3.059,15.912-6.729c1.224-5.307,3.162-9.486,5.814-12.549c2.652-3.061,5.508-5.508,8.568-7.344 c3.06-1.836,5.916-3.264,8.568-4.285c2.652-1.02,4.794-1.938,6.426-2.754c-22.44-1.631-40.8-5.402-55.08-11.318 s-25.602-13.467-33.966-22.646c-8.364-9.18-14.076-19.686-17.136-31.519c-3.06-11.832-4.59-24.276-4.59-37.332 c0-13.464,2.04-25.5,6.12-36.108s9.792-19.992,17.136-28.152c-3.264-9.792-4.386-20.094-3.366-30.906s3.162-20.502,6.426-29.07 c15.504,0.816,28.458,4.08,38.862,9.792c10.404,5.712,17.646,10.404,21.726,14.076c17.544-4.896,35.7-7.344,54.468-7.344h4.284 c17.543,0,34.479,2.04,50.795,6.12c4.488-3.672,11.832-8.16,22.033-13.464c10.199-5.304,22.85-8.364,37.943-9.18 c3.264,8.16,5.406,17.34,6.426,27.54c1.021,10.2,0.307,19.992-2.141,29.376c8.16,8.16,14.48,17.85,18.971,29.07 C407.49,196.35,409.734,209.1,409.734,223.38z M266.526,209.304h0.612h0.612H266.526z M345.474,257.04 c0,5.712-1.527,10.608-4.59,14.688c-3.061,4.08-6.834,6.119-11.322,6.119c-4.486,0-8.158-2.039-11.016-6.119 c-2.854-4.081-4.285-8.977-4.285-14.688s1.432-10.608,4.285-14.688c2.855-4.08,6.527-6.12,11.016-6.12s8.264,2.04,11.322,6.12 C343.945,246.432,345.474,251.328,345.474,257.04z M225.522,257.04c0,5.712-1.53,10.608-4.59,14.688s-6.834,6.119-11.322,6.119 s-8.16-2.039-11.016-6.119c-2.856-4.081-4.284-8.977-4.284-14.688s1.428-10.608,4.284-14.688s6.528-6.12,11.016-6.12 s8.262,2.04,11.322,6.12C223.993,246.432,225.522,251.328,225.522,257.04z"/></symbol><symbol id="github" viewBox="0 0 512 512"><title>github</title><path d="m256 0c-140.609375 0-256 115.390625-256 256 0 119.988281 84.195312 228.984375 196 256v-84.695312c-11.078125 2.425781-21.273438 2.496093-32.550781-.828126-15.128907-4.464843-27.421875-14.542968-36.546875-29.910156-5.816406-9.8125-16.125-20.453125-26.878906-19.671875l-2.636719-29.882812c23.253906-1.992188 43.371093 14.167969 55.3125 34.230469 5.304687 8.921874 11.410156 14.152343 19.246093 16.464843 7.574219 2.230469 15.707032 1.160157 25.183594-2.1875 2.378906-18.972656 11.070313-26.074219 17.636719-36.074219v-.015624c-66.679687-9.945313-93.253906-45.320313-103.800781-73.242188-13.976563-37.074219-6.476563-83.390625 18.238281-112.660156.480469-.570313 1.347656-2.0625 1.011719-3.105469-11.332032-34.230469 2.476562-62.546875 2.984375-65.550781 13.078125 3.867187 15.203125-3.890625 56.808593 21.386718l7.191407 4.320313c3.007812 1.792969 2.0625.769531 5.070312.542969 17.371094-4.71875 35.683594-7.324219 53.726563-7.558594 18.179687.234375 36.375 2.839844 54.464844 7.75l2.328124.234375c-.203124-.03125.632813-.148437 2.035157-.984375 51.972656-31.480469 50.105469-21.191406 64.042969-25.722656.503906 3.007812 14.128906 31.785156 2.917968 65.582031-1.511718 4.65625 45.058594 47.300781 19.246094 115.753906-10.546875 27.933594-37.117188 63.308594-103.796875 73.253907v.015624c8.546875 13.027344 18.816406 19.957032 18.761719 46.832032v105.722656c111.808594-27.015625 196-136.011719 196-256 .003906-140.609375-115.386719-256-255.996094-256zm0 0"/></symbol><symbol id="employee" viewBox="-1 0 512 512.0001"><title>employee</title><path d="m509.035156 395.027344c-.402344-4.152344-4.09375-7.207032-8.253906-6.800782-4.152344.402344-7.195312 4.089844-6.792969 8.242188 7.578125 78.707031-81.984375 129.414062-145.414062 82.335938-22.460938-16.675782-37.042969-43.390626-37.042969-73.460938 0-50.234375 40.832031-91.445312 91.4375-91.445312 36.726562 0 69.769531 21.847656 84.167969 55.644531 1.632812 3.839843 6.078125 5.621093 9.917969 3.988281 3.835937-1.640625 5.621093-6.074219 3.988281-9.914062-36.070313-84.664063-155.710938-86.871094-194.722657-3.125-11.203124-8.242188-23.476562-14.699219-36.476562-19.246094l-26.390625-27.527344c18.25-14.1875 36.449219-35.613281 42.554687-58.910156 20.847657-4.152344 36.609376-22.589844 36.609376-44.640625 0-21.230469-14.601563-39.105469-34.300782-44.113281v-20.679688h7.152344c7.246094 0 13.140625-5.882812 13.140625-13.128906v-79.472656c0-13.6875-7.347656-25.6875-18.300781-32.265626v-7.417968c0-7.347656-6.832032-13.089844-15.566406-13.089844h-160.109376c-17.464843 0-33.980468 4.746094-46.503906 13.371094-13.390625 9.222656-20.769531 21.757812-20.769531 35.300781v81.910156c0 11.046875 10.589844 19.8125 24.46875 20.617188v16.0625c-17.644531 6.257812-30.3125 23.128906-30.3125 42.898437 0 20.527344 13.644531 37.90625 32.347656 43.570313 1.25 5.078125 3.0625 10.15625 5.441407 15.207031 1.78125 3.777344 6.277343 5.402344 10.054687 3.628906 3.78125-1.785156 5.402344-6.289062 3.617187-10.070312-9.328124-19.769532-4.855468-25.652344-6.035156-82.738282 0-25.050781 0-1.136718 0-28.488281 3.4375-.511719 71.617188 5.542969 139.964844-41.816406.886719 19.960937 17.394531 35.921875 37.578125 35.921875h8.714844c0 100.335938 1.097656 97.414062-3.0625 109.777344-6.519531 19.257812-22.523438 36.578125-39.671875 49.527344-.011719 0-.011719 0-.011719 0-6.730469 5.128906-15.253906 10.621093-23.46875 14.8125-17.875 9.179687-26.8125 8.828124-26.914063 8.847656-14.894531 0-49.40625-18.21875-71.363281-42.734375-2.789062-3.117188-7.566406-3.378907-10.671875-.585938-3.113281 2.78125-3.375 7.558594-.582031 10.671875 6.476563 7.222656 13.84375 13.894532 21.523437 19.808594l-24.828124 25.898438c-54.789063 19.378906-94.148438 71.695312-94.148438 133.042968 0 20.273438 16.496094 36.769532 36.769531 36.769532h290.59375c10.398438 0 19.808594-4.34375 26.5-11.316407 73.871094 38.53125 163.214844-19.910156 155.171875-104.867187zm-437.207031-158.558594c-9.082031-5.25-15.195313-15.074219-15.195313-26.308594s6.113282-21.0625 15.195313-26.3125zm235.671875-26.300781c0 12.808593-7.960938 23.792969-19.195312 28.257812.011718-.636719.011718 2.488281.011718-56.511719 11.234375 4.464844 19.183594 15.449219 19.183594 28.253907zm-214.824219-74.011719c-19.820312 0-19.335937.050781-20.847656-.109375-5.855469-.617187-9.351563-3.699219-9.351563-5.464844v-81.910156c0-18.191406 23.890626-33.558594 52.15625-33.558594 167.6875.011719 160.007813-.019531 160.5625.023438v8.070312c0 35.53125-77.136718 113.726563-182.519531 112.949219zm171.808594-5.894531c-12.414063 0-22.503906-10.085938-22.503906-22.5v-9.734375c18.453125-15.289063 38.796875-37.4375 45.878906-60.128906 3.507813 3.96875 5.632813 9.179687 5.632813 14.875v77.488281zm-31.53125 194.339843c.183594.191407 25.269531 26.46875 25.375 26.46875-.214844.65625-22.089844 69.601563-22.390625 70.558594-1.453125 1.914063-4.890625 2.660156-7.4375 1.027344-5.292969-3.425781-37.0625-24.011719-38.59375-25 1.53125-2.597656 42.9375-72.882812 43.046875-73.054688zm-32.789063 97.703126v16.324218c0 1.710938-1.453124 3.304688-3.304687 3.304688h-29.585937c-1.863282 0-3.304688-1.59375-3.304688-3.304688v-16.324218l18.097656-11.71875zm9.046876-87.183594c-6.175782 10.460937-6.597657 11.164062-27.144532 46.058594-21.261718-36.101563-20.535156-34.84375-25.738281-43.671876 19.753906 8.042969 29.890625 8.496094 52.882813-2.386718zm-78.03125-10.519532c3.144531 5.339844 13.429687 22.792969 14.074218 23.890626 0 .011718 0 .011718.011719.019531.011719.019531.019531.03125.019531.03125 0 .011719 0 .011719.011719.019531 0 .011719.007813.011719.007813.019531 34.429687 58.425781 1.679687 2.855469 28.921874 49.074219-42.554687 27.558594-40.136718 26.503906-43.257812 25.707031-1.171875-.292969-2.148438-.90625-2.773438-1.734375.09375.296875-21.894531-68.992187-22.390624-70.558594 9.464843-9.875 17.097656-17.835937 25.375-26.46875zm12.101562 171.496094h-56.5625v-49.832031c0-4.171875-3.382812-7.554687-7.554688-7.554687-4.171874 0-7.558593 3.382812-7.558593 7.554687v49.832031h-34.835938c-11.941406 0-21.65625-9.714844-21.65625-21.65625 0-52.148437 31.855469-97 77.128907-116.105468 23.175781 72.816406 21.707031 68.796874 22.410156 70.105468 5.574218 10.175782 19.316406 13.300782 29.191406 6.902344l5.007812-3.246094c.503907 3.054688-2.425781 14.140625 7.609376 21.425782zm15.808594 0 12.101562-39.050781h22.421875l12.496094 39.050781zm168.273437 0h-34.847656v-49.832031c0-4.171875-3.375-7.554687-7.558594-7.554687-4.167969 0-7.554687 3.382812-7.554687 7.554687v49.832031h-55.421875l-13.753907-42.988281c4.292969-3.375 7.050782-8.605469 7.050782-14.480469v-6.53125l5.007812 3.246094c11.558594 7.488281 26.695313 1.167969 29.769532-8.242188l21.863281-68.863281c10.269531 4.3125 19.953125 10.015625 28.832031 17.027344-12.445312 42.085937 2.21875 89.113281 39.773438 116.367187-3.648438 2.789063-8.214844 4.464844-13.160157 4.464844zm0 0"/><path d="m430.492188 476.53125c9.960937-3.835938 18.859374-9.628906 26.449218-17.214844 47.429688-47.433594 14.527344-130.265625-53.972656-130.265625-68.289062 0-101.503906 82.730469-53.96875 130.265625 14.625 14.621094 35.222656 22.148438 49.125 22.148438 3.933594 0 7.253906-3.042969 7.53125-7.027344.292969-4.164062-2.84375-7.777344-7.007812-8.066406-14.714844-1.03125-28.550782-7.335938-38.960938-17.746094-37.980469-37.976562-11.75-104.460938 43.28125-104.460938 54.882812 0 81.335938 66.410157 43.285156 104.460938-6.085937 6.085938-13.214844 10.730469-21.191406 13.800781-3.894531 1.5-5.835938 5.875-4.335938 9.769531 1.5 3.894532 5.875 5.835938 9.765626 4.335938zm0 0"/><path d="m432.574219 367.070312c-3.554688-2.191406-8.210938-1.089843-10.402344 2.464844l-38.4375 62.316406-13.523437-18.476562c-2.464844-3.367188-7.191407-4.097656-10.558594-1.636719-3.371094 2.464844-4.101563 7.195313-1.636719 10.5625l20.152344 27.542969c1.425781 1.949219 3.695312 3.09375 6.097656 3.09375 2.625 0 5.058594-1.355469 6.433594-3.589844l44.339843-71.878906c2.191407-3.550781 1.085938-8.207031-2.464843-10.398438zm0 0"/><path d="m221.734375 210.382812c0 6.589844 5.335937 11.929688 11.929687 11.929688 6.582032 0 11.921876-5.339844 11.921876-11.929688 0-6.582031-5.339844-11.921874-11.921876-11.921874-6.578124 0-11.929687 5.335937-11.929687 11.921874zm0 0"/><path d="m252.800781 180.070312c1.25.785157 2.640625 1.160157 4.019531 1.160157 7.339844 0 10.566407-9.613281 4.03125-13.957031-16.089843-10.117188-41.917968-5.121094-44.808593-4.515626-4.082031.847657-6.691407 4.847657-5.855469 8.929688.847656 4.082031 4.847656 6.710938 8.9375 5.863281 4.855469-.996093 17.019531-2.46875 26.53125-.261719 2.660156.605469 5.121094 1.5 7.144531 2.78125zm0 0"/><path d="m130.460938 198.460938c-6.582032 0-11.921876 5.339843-11.921876 11.921874 0 7.035157 6.113282 12.367188 12.355469 11.917969 6.386719-.21875 11.496094-5.46875 11.496094-11.917969 0-6.390624-5.039063-11.609374-11.367187-11.902343-.191407-.019531-.371094-.019531-.5625-.019531zm0 0"/><path d="m148.085938 162.757812c-2.894532-.605468-28.730469-5.601562-44.8125 4.515626-6.542969 4.347656-3.296876 13.957031 4.03125 13.957031 4.023437 0 3.820312-2.257813 11.175781-3.949219 9.511719-2.199219 21.652343-.726562 26.519531.269531 4.070312.847657 8.082031-1.761719 8.9375-5.855469.847656-4.078124-1.773438-8.089843-5.851562-8.9375zm0 0"/><path d="m197.449219 257.609375c0 4.878906-2.277344 9.222656-5.824219 12.042969-9.929688 7.945312-24.949219.886718-24.949219-12.042969 0-4.164063-3.390625-7.554687-7.558593-7.554687-15.917969 0-6.082032 38.058593 22.945312 38.058593 23.804688 0 33.664062-25.125 29.847656-33.574219-3.332031-7.464843-14.460937-5-14.460937 3.070313zm0 0"/></symbol><symbol id="puzzle" viewBox="0 -4 512.00201 512"><title>puzzle</title><path d="m482.285156 350.507812c-6.867187 0 5.734375-1.757812-178.371094 44.113282-1.488281-5.109375-4.238281-9.933594-8.25-13.945313l-55.289062-55.289062c-6.855469-6.855469-15.972656-10.632813-25.667969-10.632813h-110.289062c-2.078125-19.011718-18.238281-33.855468-37.792969-33.855468h-28.601562c-20.96875 0-38.023438 17.054687-38.023438 38.023437v133.566406c0 20.972657 17.054688 38.035157 38.023438 38.035157h28.601562c20.957031 0 38.023438-17.0625 38.023438-38.035157v-13.320312c18.265624 3.882812 39.6875 4.214843 68.601562 18.359375 57.195312 28.253906 59.339844 28.382812 69.433594 34.890625 25.234375 16.261719 57.652344 16.453125 83.105468.425781l143.203126-72.605469c3.707031-1.882812 5.191406-6.414062 3.3125-10.121093-1.882813-3.707032-6.414063-5.1875-10.121094-3.308594-149.75 75.9375-143.574219 72.757812-144.160156 73.132812-20.539063 13.070313-46.785157 12.964844-67.183594-.179687-11.285156-7.273438-14.808594-7.984375-70.972656-35.757813-31.578126-15.453125-55.214844-15.867187-75.21875-20.117187v-94.074219h110.058593c5.671875 0 11.011719 2.207031 15.027344 6.222656l55.28125 55.289063c10.890625 10.878906 3.566406 29.152343-11.515625 29.152343-4.496094 0-8.730469-1.757812-11.921875-4.9375l-49.800781-49.820312c-2.941406-2.941406-7.710938-2.941406-10.652344 0s-2.941406 7.710938 0 10.648438l49.8125 49.820312c17.957031 17.898438 48.863281 8.78125 53.699219-16.222656l176.046875-44.3125c8.761718-.949219 16.261718 5.953125 16.261718 14.617187 0 9.527344-7.800781 12.816407-7.902343 12.917969-3.707031 1.878906-5.1875 6.410156-3.308594 10.117188 1.878906 3.710937 6.410156 5.191406 10.121094 3.3125l1.726562-.878907c7.535157-3.800781 14.421875-14.066406 14.421875-25.46875-.003906-16.410156-13.335937-29.761719-29.71875-29.761719zm-392.695312 101.984376c0 12.667968-10.308594 22.976562-22.964844 22.976562h-28.601562c-12.65625 0-22.964844-10.308594-22.964844-22.976562v-133.570313c0-12.65625 10.308594-22.96875 22.964844-22.96875h28.601562c11.230469 0 20.617188 8.121094 22.585938 18.804687.570312 3.082032.378906 137.625.378906 137.734376zm0 0"/><path d="m62.417969 411.453125c-3.816407-1.640625-8.246094.125-9.890625 3.941406-1.644532 3.820313.121094 8.25 3.941406 9.890625 10.492188 4.511719 7.175781 20.167969-4.144531 20.167969-7.121094 0-12.160157-6.949219-10.019531-13.6875 1.257812-3.964844-.933594-8.199219-4.894532-9.457031-3.96875-1.257813-8.195312.9375-9.457031 4.898437-5.238281 16.5 7.15625 33.304688 24.371094 33.304688 14.097656 0 25.566406-11.46875 25.566406-25.566407 0-10.226562-6.074219-19.449218-15.472656-23.492187zm0 0"/><path d="m86.945312 192.84375c4.078126-.824219 6.710938-4.800781 5.882813-8.875-3.621094-17.859375 10.101563-34.402344 28.101563-34.40625 4.160156 0 7.527343-3.371094 7.527343-7.527344v-19.003906c0-7.617188 6.199219-13.8125 13.8125-13.8125h19.058594c4.160156 0 7.527344-3.371094 7.527344-7.527344 0-.050781 0-.101562 0-.15625.058593-15.765625 12.902343-28.570312 28.679687-28.570312 15.789063 0 28.640625 12.828125 28.675782 28.613281v.113281c0 4.15625 3.371093 7.527344 7.527343 7.527344h19.054688c7.621093 0 13.820312 6.195312 13.820312 13.8125v12.117188c-12.820312 2.21875-24.585937 10.253906-31.144531 22.636718-.132812.25-.246094.503906-.347656.757813-3 5.925781-4.703125 12.617187-4.703125 19.695312 0 4.910157.820312 9.628907 2.320312 14.039063.0625.253906.136719.503906.226563.753906 5.371094 14.953125 18.554687 25.660156 33.648437 28.292969v12.230469c0 7.621093-6.199219 13.820312-13.820312 13.820312h-12.164063c-3.550781-20.574219-21.523437-36.273438-43.09375-36.273438-21.554687 0-39.519531 15.675782-43.089844 36.273438h-12.175781c-7.617187 0-13.8125-6.199219-13.8125-13.820312v-19.109376c0-4.15625-3.371093-7.527343-7.527343-7.527343-5.191407 0-10.273438-1.402344-14.699219-4.050781-3.570313-2.132813-8.191407-.976563-10.328125 2.59375-2.136719 3.566406-.976563 8.191406 2.59375 10.328124 4.59375 2.75 9.648437 4.621094 14.902344 5.535157v12.234375c0 15.921875 12.953124 28.875 28.871093 28.875h19.058594c4.15625 0 7.527344-3.4375 7.527344-7.59375 0-15.8125 12.863281-28.679688 28.679687-28.679688 15.808594 0 28.671875 12.867188 28.671875 28.746094 0 4.15625 3.371094 7.527344 7.527344 7.527344h19.058594c8.449219 0 16.0625-3.648438 21.347656-9.449219 5.285156 5.800781 12.894531 9.449219 21.339844 9.449219h19.058593c4.160157 0 7.53125-3.4375 7.53125-7.59375 0-15.8125 12.863282-28.679688 28.679688-28.679688 15.8125 0 28.679688 12.867188 28.679688 28.746094 0 4.15625 3.367187 7.527344 7.527343 7.527344h19.058594c15.917969 0 28.867187-12.953125 28.867187-28.875v-19.109375c0-4.15625-3.378906-7.527344-7.535156-7.527344-15.816406 0-28.679687-12.867187-28.679687-28.683594 0-15.8125 12.863281-28.679687 28.679687-28.679687h.007813c4.160156 0 7.527343-3.371094 7.527343-7.527344v-19c0-15.917969-12.949218-28.867188-28.867187-28.867188h-19.058594c-4.15625 0-7.523437 3.363282-7.527343 7.519532-.019532 15.789062-12.886719 28.636718-28.679688 28.636718s-28.660156-12.847656-28.679688-28.640624c-.007812-4.152344-3.375-7.515626-7.53125-7.515626h-19.054687c-8.445313 0-16.058594 3.644532-21.339844 9.445313-5.285156-5.800781-12.898437-9.445313-21.347656-9.445313h-12.167969c-3.558594-20.566406-21.527344-36.257812-43.09375-36.257812-21.570312 0-39.539062 15.691406-43.097656 36.257812h-12.167969c-15.917969 0-28.867187 12.949219-28.867187 28.867188v12.121094c-24.097656 4.203125-40.242188 27.597656-35.332032 51.808594.820313 4.035156 4.753907 6.714843 8.875 5.882812zm187.199219-43.28125c4.160157 0 7.527344-3.371094 7.527344-7.527344v-19.003906c0-7.617188 6.195313-13.8125 13.8125-13.8125h12.1875c3.601563 20.515625 21.558594 36.160156 43.082031 36.160156 21.523438 0 39.476563-15.644531 43.078125-36.160156h12.1875c7.617188 0 13.8125 6.195312 13.8125 13.8125v12.117188c-20.546875 3.578124-36.21875 21.539062-36.21875 43.089843s15.667969 39.511719 36.21875 43.089844v12.226563c0 7.621093-6.195312 13.820312-13.8125 13.820312h-12.167969c-3.550781-20.574219-21.523437-36.273438-43.097656-36.273438-21.558594 0-39.523437 15.675782-43.09375 36.273438h-12.175781c-7.617187 0-13.8125-6.199219-13.8125-13.820312 0-11.59375 0-6.941407 0-19.109376 0-3.960937-3.109375-7.511718-7.648437-7.53125-5.960938-.023437-12.039063-1.925781-17.234376-5.875-21.738281-16.589843-10.035156-51.476562 17.355469-51.476562zm0 0"/><path d="m248.515625 296.183594v19.242187c0 4.15625 3.371094 7.527344 7.527344 7.527344 4.160156 0 7.53125-3.371094 7.53125-7.527344v-19.242187c0-4.160156-3.371094-7.53125-7.53125-7.53125-4.15625 0-7.527344 3.371094-7.527344 7.53125zm0 0"/><path d="m256.042969 34.300781c4.160156 0 7.53125-3.367187 7.53125-7.527343v-19.242188c0-4.160156-3.371094-7.53125-7.53125-7.53125-4.15625 0-7.527344 3.371094-7.527344 7.53125v19.242188c0 4.160156 3.371094 7.527343 7.527344 7.527343zm0 0"/><path d="m33.613281 143.132812h19.242188c4.160156 0 7.53125-3.371093 7.53125-7.53125 0-4.15625-3.371094-7.527343-7.53125-7.527343h-19.242188c-4.160156 0-7.53125 3.371093-7.53125 7.527343 0 4.160157 3.371094 7.53125 7.53125 7.53125zm0 0"/><path d="m93.605469 37.445312c14.035156 11.101563 14.925781 14.132813 19.578125 14.132813 7.003906 0 10.214844-8.789063 4.84375-13.296875l-14.742188-12.367188c-3.1875-2.675781-7.933594-2.257812-10.609375.925782-2.671875 3.183594-2.253906 7.933594.929688 10.605468zm0 0"/><path d="m54.277344 258.042969c2.515625 0 2.453125-.589844 20.664062-7.644531 3.863282-1.539063 5.75-5.917969 4.210938-9.78125-1.535156-3.863282-5.914063-5.746094-9.773438-4.210938l-17.882812 7.109375c-7.664063 3.046875-5.492188 14.527344 2.78125 14.527344zm0 0"/><path d="m472.382812 153.113281h19.242188c4.160156 0 7.53125-3.371093 7.53125-7.527343 0-4.160157-3.371094-7.53125-7.53125-7.53125h-19.242188c-4.160156 0-7.527343 3.371093-7.527343 7.53125 0 4.15625 3.367187 7.527343 7.527343 7.527343zm0 0"/><path d="m437.328125 288.578125 14.742187 12.371094c3.199219 2.683593 7.945313 2.242187 10.605469-.929688 2.671875-3.183593 2.257813-7.933593-.925781-10.605469l-14.746094-12.371093c-3.183594-2.671875-7.933594-2.257813-10.605468.929687-2.671876 3.183594-2.257813 7.933594.929687 10.605469zm0 0"/><path d="m392.824219 45.085938 15.160156-11.851563c3.277344-2.5625 3.859375-7.292969 1.296875-10.566406-2.5625-3.277344-7.289062-3.855469-10.566406-1.296875l-15.164063 11.851562c-3.273437 2.558594-3.855469 7.289063-1.292969 10.566406 2.566407 3.285157 7.296876 3.851563 10.566407 1.296876zm0 0"/></symbol><symbol id="human-resources" viewBox="0 0 511.99995 511"><title>human-resources</title><path d="m321.386719 157.894531 20.101562 3.546875c.160157 1.078125.351563 2.164063.5625 3.234375l-17.671875 10.207031c-5.792968 3.34375-7.785156 10.789063-4.441406 16.582032l10.589844 18.347656c3.34375 5.792969 10.789062 7.789062 16.582031 4.441406l17.683594-10.207031c.824219.726563 1.660156 1.433594 2.515625 2.117187l-6.980469 19.171876c-2.285156 6.296874.96875 13.28125 7.253906 15.566406 19.878907 7 20.398438 7.980468 24.070313 7.980468 4.847656 0 9.5625-2.960937 11.394531-7.988281l6.980469-19.183593c1.101562.019531 2.1875.019531 3.285156 0l6.984375 19.183593c2.292969 6.289063 9.242187 9.554688 15.566406 7.253907l19.898438-7.246094c6.339843-2.300782 9.539062-9.296875 7.261719-15.566406l-6.980469-19.171876c.847656-.683593 1.691406-1.390624 2.507812-2.117187l17.683594 10.207031c5.800781 3.347656 13.238281 1.351563 16.582031-4.441406l10.597656-18.347656c3.347657-5.804688 1.351563-13.238282-4.453124-16.582032l-17.660157-10.207031c.210938-1.070312.402344-2.15625.5625-3.234375l20.101563-3.546875c5.882812-1.039062 10.023437-6.175781 10.023437-11.960937 0-.695313-.058593-1.398438-.179687-2.105469l-3.675782-20.855469c-.566406-3.191406-2.339843-5.984375-4.988281-7.835937-2.660156-1.867188-5.875-2.582031-9.078125-2.015625l-20.089844 3.546875c-.535156-.96875-1.078124-1.914063-1.652343-2.851563l13.117187-15.636718c2.085938-2.480469 3.074219-5.632813 2.792969-8.855469-.285156-3.234375-1.804687-6.15625-4.285156-8.242188l-16.230469-13.621093c-5.128906-4.304688-12.804688-3.628907-17.105469 1.5l-13.109375 15.625c-1.027344-.402344-2.054687-.773438-3.101562-1.128907v-20.398437c0-6.691406-5.441406-12.140625-12.140625-12.140625h-21.179688c-6.691406 0-12.140625 5.449219-12.140625 12.140625v20.398437c-1.039062.355469-2.074218.726563-3.09375 1.128907l-13.117187-15.625c-4.300781-5.128907-11.980469-5.804688-17.105469-1.5l-16.222656 13.621093c-5.128906 4.300781-5.804688 11.96875-1.492188 17.097657l13.109375 15.636718c-.566406.9375-1.117187 1.882813-1.644531 2.851563l-20.097656-3.546875c-6.574219-1.164063-12.894532 3.214844-14.066406 9.851562l-3.675782 20.855469c-1.171875 6.625 3.269532 12.902344 9.851563 14.066406zm8.191406-29.378906 22.742187 4.007813c3.425782.605468 6.820313-1.199219 8.21875-4.382813 1.621094-3.644531 3.636719-7.140625 6.015626-10.375 2.054687-2.8125 1.925781-6.660156-.3125-9.320313l-14.851563-17.703124 11.679687-9.792969 14.839844 17.691406c2.234375 2.660156 6.003906 3.457031 9.128906 1.914063 3.585938-1.761719 7.375-3.140626 11.261719-4.097657 3.375-.828125 5.753907-3.859375 5.753907-7.335937v-23.09375h15.234374v23.09375c0 3.476562 2.378907 6.507812 5.761719 7.335937 3.878907.957031 7.679688 2.335938 11.265625 4.097657 3.121094 1.542968 6.890625.746093 9.128906-1.914063l14.839844-17.691406 11.667969 9.792969-14.84375 17.703124c-2.234375 2.660157-2.367187 6.507813-.3125 9.320313 2.367187 3.234375 4.394531 6.730469 6.007813 10.375 1.410156 3.183594 4.792968 4.988281 8.21875 4.382813l22.742187-4.007813 2.648437 15.011719-22.761718 4.007812c-3.425782.605469-5.992188 3.476563-6.226563 6.945313-.261719 4.007812-.957031 7.988281-2.0625 11.816406-.96875 3.335937.472657 6.902344 3.476563 8.644531l19.996094 11.546875-7.617188 13.1875-20.007812-11.546875c-3.011719-1.742187-6.820313-1.199218-9.230469 1.3125-2.777344 2.890625-5.871094 5.488282-9.1875 7.714844-2.890625 1.933594-4.078125 5.59375-2.890625 8.855469l7.898437 21.703125-14.316406 5.21875-7.898437-21.710938c-1.226563-3.363281-4.597657-5.308594-7.898438-4.925781-4.011719.421875-8.019531.421875-12.019531 0-3.46875-.375-6.710938 1.660156-7.898438 4.925781l-7.902343 21.710938-14.324219-5.21875 7.898437-21.703125c1.1875-3.261719 0-6.921875-2.882812-8.855469-3.324219-2.226562-6.417969-4.824219-9.1875-7.714844-2.410156-2.511718-6.214844-3.054687-9.230469-1.3125l-20.007813 11.546875-7.617187-13.1875 19.988281-11.546875c3.011719-1.742187 4.445313-5.308594 3.476563-8.644531-1.097657-3.828125-1.792969-7.796875-2.066407-11.816406-.230468-3.46875-2.800781-6.339844-6.226562-6.945313l-22.75-4.007812zm0 0"/><path d="m411.671875 201.992188c28.734375 0 52.097656-23.363282 52.097656-52.097657 0-28.722656-23.363281-52.089843-52.097656-52.089843-28.726563 0-52.097656 23.367187-52.097656 52.089843 0 28.734375 23.371093 52.097657 52.097656 52.097657zm0-89.074219c20.390625 0 36.984375 16.585937 36.984375 36.976562 0 20.402344-16.59375 36.984375-36.984375 36.984375s-36.988281-16.582031-36.988281-36.984375c0-20.390625 16.597656-36.976562 36.988281-36.976562zm0 0"/><path d="m411.671875 178.660156c15.820313 0 28.742187-12.773437 28.742187-28.765625 0-25.761719-31.15625-38.25-49.074218-20.332031-17.910156 17.910156-5.402344 49.097656 20.332031 49.097656zm0-42.40625c7.472656 0 13.632813 6.019532 13.632813 13.640625 0 12.058594-14.652344 18.308594-23.273438 9.652344-8.460938-8.425781-2.632812-23.292969 9.640625-23.292969zm0 0"/><path d="m511.796875 362.945312-4.429687-25.109374c-1.25-7.105469-8-11.863282-15.144532-10.609376l-25.277344 4.453126c-.957031-1.792969-1.976562-3.546876-3.054687-5.269532l16.503906-19.664062c4.632813-5.523438 3.910157-13.785156-1.613281-18.429688l-19.523438-16.382812c-5.523437-4.632813-13.792968-3.90625-18.429687 1.613281l-16.492187 19.65625c-1.882813-.765625-3.796876-1.460937-5.734376-2.085937v-25.660157c0-7.214843-5.863281-13.078125-13.066406-13.078125h-25.5c-7.203125 0-13.078125 5.863282-13.078125 13.078125v25.660157c-1.933593.625-3.835937 1.320312-5.722656 2.085937l-16.503906-19.65625c-4.632813-5.519531-12.894531-6.246094-18.414063-1.613281l-19.527344 16.382812c-5.550781 4.65625-6.253906 12.894532-1.613281 18.429688l16.503907 19.664062c-1.085938 1.722656-2.105469 3.476563-3.050782 5.269532l-25.28125-4.453126c-7.050781-1.257812-13.871094 3.425782-15.152344 10.609376l-1.167968 6.609374c-2.378906-.988281-4.785156-1.902343-7.222656-2.75l-26.386719-27.523437c18.246093-14.1875 36.449219-35.605469 42.546875-58.902344 20.84375-4.148437 36.601562-22.585937 36.601562-44.632812 0-21.226563-14.597656-39.101563-34.296875-44.109375v-20.671875h7.15625c7.242188 0 13.136719-5.886719 13.136719-13.128907v-79.464843c0-13.679688-7.34375-25.679688-18.296875-32.257813v-7.417968c0-7.34375-6.832031-13.085938-15.566406-13.085938h-160.085938c-17.457031 0-33.972656 4.746094-46.496093 13.371094-13.390626 9.21875-20.765626 21.75-20.765626 35.292968v81.898438c0 11.042969 10.589844 19.808594 24.464844 20.617188v16.058593c-17.640625 6.257813-30.308594 23.121094-30.308594 42.890625 0 20.523438 13.644532 37.902344 32.34375 43.5625 1.25 5.078125 3.0625 10.15625 5.441407 15.203125 1.78125 3.78125 6.277343 5.402344 10.054687 3.628907 3.777344-1.785157 5.398438-6.285157 3.617188-10.066407-9.332032-19.765625-4.847656-25.648437-6.035156-82.726562 0-25.046875 0-1.136719 0-28.480469 3.445312-.515625 71.613281 5.539062 139.941406-41.8125.886718 19.957031 17.390625 35.917969 37.570312 35.917969h8.714844c0 100.316406 1.101562 97.394531-3.0625 109.757812-6.515625 19.253907-22.515625 36.574219-39.664062 49.519531-.011719 0-.011719 0-.011719 0-6.71875 5.128907-15.253907 10.621094-23.464844 14.808594-17.871094 9.179688-26.808594 8.828125-26.910156 8.847656-14.890625 0-49.386719-18.214843-71.351563-42.730468-2.792968-3.109375-7.566406-3.375-10.671875-.582032-3.113281 2.78125-3.375 7.554688-.582031 10.667969 6.476562 7.226563 13.84375 13.894531 21.519531 19.808594l-24.824219 25.894531c-54.777343 19.375-94.132812 71.683594-94.132812 133.023438 0 20.269531 16.492188 36.761718 36.765625 36.761718h290.546875c16.351562 0 30.246094-10.738281 35.011719-25.53125l1.871093.6875c6.773438 2.46875 14.296876-1.039062 16.765626-7.820312l8.777343-24.128906c2.035157.082031 4.050781.082031 6.085938 0l8.785156 24.128906c2.507813 6.875 10.074219 10.277344 16.753906 7.820312l23.960938-8.714843c6.777343-2.46875 10.285156-9.984375 7.816406-16.765625l-8.785156-24.128906c1.601562-1.25 3.152343-2.550782 4.664062-3.910157l22.238281 12.835938c6.292969 3.617187 14.257813 1.460937 17.863282-4.785157l12.742187-22.074218c3.628907-6.257813 1.464844-14.273438-4.785156-17.863282l-22.226563-12.835937c.425782-1.988281.777344-3.992187 1.050782-5.996094l25.285156-4.464843c3.4375-.601563 6.441406-2.519532 8.445312-5.378907 2.003907-2.863281 2.769532-6.328125 2.164063-9.761719zm-439.980469-126.011718c-9.078125-5.25-15.195312-15.070313-15.195312-26.304688s6.117187-21.058594 15.195312-26.308594zm235.636719-26.296875c0 12.804687-7.957031 23.789062-19.191406 28.25.019531-.632813.007812 2.492187.007812-56.5 11.234375 4.464843 19.183594 15.445312 19.183594 28.25zm-214.792969-74c-19.816406 0-19.332031.050781-20.84375-.113281-5.855468-.613282-9.351562-3.695313-9.351562-5.460938v-81.898438c0-18.1875 23.890625-33.550781 52.148437-33.550781 167.671875.007813 159.984375-.019531 160.539063.019531v8.070313c0 35.523437-77.125 113.707031-182.492188 112.933594zm171.78125-5.894531c-12.410156 0-22.496094-10.085938-22.496094-22.5v-9.730469c18.457032-15.285157 38.800782-37.429688 45.871094-60.117188 3.507813 3.96875 5.632813 9.175781 5.632813 14.867188v77.480469zm-31.523437 194.308593c10.042969 10.480469 17.414062 18.175781 25.367187 26.46875-.199218.652344-22.082031 69.589844-22.386718 70.546875-1.4375 1.914063-4.875 2.660156-7.433594 1.027344-5.28125-3.425781-37.058594-24.011719-38.589844-24.996094 1.53125-2.601562 42.941406-72.875 43.042969-73.046875zm-32.785157 97.691407v16.320312c0 1.710938-1.441406 3.304688-3.304687 3.304688h-29.582031c-1.863282 0-3.304688-1.59375-3.304688-3.304688v-16.320312l18.097656-11.71875zm9.046876-87.171876c-6.164063 10.457032-6.597657 11.164063-27.140626 46.054688-21.257812-36.101562-20.523437-34.839844-25.734374-43.667969 19.75 8.039063 29.882812 8.492188 52.875-2.386719zm-87.734376-.382812v-.011719l9.714844-10.125c3.160156 5.359375 13.507813 22.933594 14.082032 23.898438v.011719l.011718.007812c0 .011719.011719.019531.019532.042969 0 .007812.011718.007812.011718.019531.007813.019531.027344.039062.039063.070312.058593.101563.109375.179688.152343.242188v.007812c.007813.011719.007813.011719.007813.011719.0625.109375.089844.160157.101563.171875 1.351562 2.285156 7.171874 12.167969 28.613281 48.5625-42.546875 27.554688-40.128907 26.496094-43.253907 25.699219-1.167968-.289063-2.144531-.90625-2.769531-1.730469-5.320312-16.746094-19.894531-62.6875-22.386719-70.546875zm21.8125 161.332031h-56.550781v-49.820312c0-4.171875-3.375-7.554688-7.554687-7.554688-4.171875 0-7.558594 3.382813-7.558594 7.554688v49.820312h-34.828125c-11.941406 0-21.652344-9.710937-21.652344-21.648437 0-52.140625 31.847657-96.984375 77.113281-116.089844 23.175782 72.804688 21.714844 68.785156 22.410157 70.09375 5.582031 10.175781 19.3125 13.300781 29.1875 6.902344l5.007812-3.242188c.503907 3.050782-2.429687 14.132813 7.605469 21.417969zm15.808594 0 12.101563-39.039062h22.417969l12.492187 39.039062zm168.246094 0h-34.832031v-49.820312c0-4.171875-3.382813-7.554688-7.554688-7.554688-4.179687 0-7.554687 3.382813-7.554687 7.554688v49.820312h-55.425782l-13.753906-42.980469c4.292969-3.375 7.054688-8.601562 7.054688-14.476562v-6.527344l5.007812 3.242188c11.554688 7.484375 26.699219 1.167968 29.761719-8.242188l21.863281-68.851562c.824219.339844 1.640625.703125 2.457032 1.066406l-.5625 3.195312c-1.25 7.089844 3.503906 13.890626 10.609374 15.140626l24.070313 4.253906c.460937.410156.914063.835937 1.367187 1.269531.253907 1.652344.546876 3.304687.898438 4.9375l-22.238281 12.835937c-6.277344 3.617188-8.375 11.632813-4.785157 17.863282l12.757813 22.074218c3.59375 6.246094 11.605469 8.390626 17.851563 4.785157l22.246093-12.835938c1.5 1.359375 3.0625 2.660157 4.65625 3.910157l-8.777343 24.128906c-2.472657 6.769531 1 14.273437 7.808593 16.765625l7.859375 2.859375c-2.628906 8.996094-10.953125 15.585937-20.785156 15.585937zm140.347656-127.863281c-3.425781.605469-5.996094 3.464844-6.226562 6.941406-.332032 4.9375-1.191406 9.835938-2.550782 14.550782-.964843 3.332031.472657 6.898437 3.476563 8.632812l25.398437 14.667969-10.707031 18.550781-25.410156-14.671875c-3.011719-1.742187-6.820313-1.195313-9.230469 1.3125-3.425781 3.554687-7.222656 6.75-11.3125 9.5-2.882812 1.933594-4.082031 5.589844-2.894531 8.855469l10.035156 27.566406-20.117187 7.324219-10.035156-27.566407c-1.191407-3.261718-4.445313-5.308593-7.910157-4.9375-4.917969.535157-9.863281.535157-14.78125 0-3.445312-.359374-6.71875 1.675782-7.90625 4.9375l-10.035156 27.566407c.207031.078125-2.792969-1.011719-20.132813-7.324219l.976563-2.679688c8.476563-24.753906 10.496094-25.507812 9.171875-29.730468-1.460938-4.710938-5.074219-3.894532-14.308594-13.511719-2.175781-2.269531-5.480468-2.933594-8.320312-1.753906-.726563.28125.753906-.496094-26.328125 15.113281l-10.699219-18.550781 25.390625-14.667969c3.011719-1.734375 4.453125-5.300781 3.484375-8.632812-1.289062-4.382813-2.269531-9.792969-2.550781-14.550782-.484375-7.269531-8.257813-7.140625-8.8125-7.394531l-26.316407-4.644531c-.003906.019531.003907-.027344.03125-.191406-.011718.074218-.027343.148437-.03125.179687.019532-.113281.035157-.1875.042969-.238281 0 .003906-.003906.011718-.003906.019531.164063-.921875.90625-5.132813 3.6875-20.867187l28.875 5.097656c3.4375.605468 6.820313-1.210938 8.230469-4.382813 1.984375-4.503906 4.472656-8.804687 7.386718-12.785156 2.054688-2.8125 1.933594-6.660156-.304687-9.320313l-18.859375-22.476562 16.402344-13.773438 18.859375 22.46875c2.230469 2.667969 5.996093 3.464844 9.121093 1.921876 4.421876-2.175782 9.085938-3.878907 13.871094-5.046876 3.386719-.824218 5.753906-3.859374 5.753906-7.34375v-29.328124h21.421876v29.328124c0 3.484376 2.375 6.519532 5.75 7.34375 4.785156 1.167969 9.460937 2.871094 13.875 5.046876 3.121093 1.542968 6.890624.746093 9.128906-1.921876l18.847656-22.46875 16.414062 13.773438-18.859374 22.476562c-2.238282 2.660157-2.367188 6.507813-.3125 9.320313 2.921874 3.980469 5.410156 8.28125 7.394531 12.785156 1.410156 3.171875 4.796875 4.976563 8.222656 4.382813l28.882813-5.097656 3.71875 21.097656zm0 0"/><path d="m392.78125 308.808594c-33.722656 0-61.167969 27.445312-61.167969 61.167968 0 33.738282 27.445313 61.175782 61.167969 61.175782 33.730469 0 61.175781-27.445313 61.175781-61.175782 0-33.722656-27.445312-61.167968-61.175781-61.167968zm0 107.230468c-25.390625 0-46.054688-20.664062-46.054688-46.0625 0-25.390624 20.664063-46.054687 46.054688-46.054687 25.398438 0 46.0625 20.664063 46.0625 46.054687 0 25.398438-20.664062 46.0625-46.0625 46.0625zm0 0"/><path d="m359.722656 369.976562c0 8.847657 3.4375 17.148438 9.671875 23.394532 20.777344 20.773437 56.453125 5.964844 56.453125-23.394532 0-8.835937-3.4375-17.148437-9.671875-23.382812-20.828125-20.796875-56.453125-5.921875-56.453125 23.382812zm33.058594 17.964844c-15.964844 0-23.925781-19.429687-12.695312-30.660156 6.960937-6.980469 18.34375-7.054688 25.398437 0 11.167969 11.167969 3.386719 30.660156-12.703125 30.660156zm0 0"/><path d="m221.703125 210.847656c0 6.59375 5.335937 11.929688 11.929687 11.929688 6.578126 0 11.917969-5.339844 11.917969-11.929688 0-6.578125-5.339843-11.917968-11.917969-11.917968-6.578124 0-11.929687 5.335937-11.929687 11.917968zm0 0"/><path d="m252.765625 180.542969c1.25.785156 2.640625 1.160156 4.019531 1.160156 7.335938 0 10.5625-9.613281 4.03125-13.957031-16.089844-10.113282-41.914062-5.117188-44.804687-4.511719-4.082031.847656-6.691407 4.847656-5.855469 8.925781.847656 4.082032 4.847656 6.710938 8.9375 5.863282 4.855469-.996094 17.019531-2.46875 26.527344-.261719 2.660156.605469 5.121094 1.503906 7.144531 2.78125zm0 0"/><path d="m130.441406 198.929688c-6.578125 0-11.917968 5.339843-11.917968 11.917968 0 7.039063 6.113281 12.367188 12.351562 11.921875 6.390625-.222656 11.496094-5.472656 11.496094-11.921875 0-6.386718-5.035156-11.605468-11.363282-11.898437-.191406-.019531-.375-.019531-.566406-.019531zm0 0"/><path d="m148.066406 163.234375c-2.894531-.605469-28.726562-5.601563-44.804687 4.511719-6.542969 4.347656-3.296875 13.957031 4.027343 13.957031 4.027344 0 3.820313-2.257813 11.175782-3.949219 9.511718-2.199218 21.652344-.726562 26.515625.269532 4.070312.847656 8.082031-1.761719 8.9375-5.851563.847656-4.082031-1.773438-8.089844-5.851563-8.9375zm0 0"/><path d="m197.421875 258.070312c0 4.878907-2.277344 9.21875-5.824219 12.042969-9.929687 7.941407-24.945312.882813-24.945312-12.042969 0-4.164062-3.386719-7.554687-7.554688-7.554687-15.917968 0-6.082031 38.054687 22.941406 38.054687 23.800782 0 33.65625-25.121093 29.839844-33.570312-3.332031-7.464844-14.457031-4.996094-14.457031 3.070312zm0 0"/></symbol><symbol id="warning" viewBox="0 0 512 512"><title>warning</title><path d="m190.109375 254.972656c-11.34375 2.246094-9.933594 19.28125 1.90625 19.28125 5.371094 0 9.734375-4.355468 9.734375-9.734375 0-6.199219-5.738281-10.785156-11.640625-9.546875zm0 0"/><path d="m107.8125 254.78125c-5.371094 0-9.738281 4.359375-9.738281 9.738281 0 6.039063 5.480469 10.695313 11.542969 9.5625 4.515624-.84375 7.929687-4.796875 7.929687-9.5625 0-5.402343-4.382813-9.738281-9.734375-9.738281zm0 0"/><path d="m122.464844 224.324219c-11.5-2.457031-26.316406-2.386719-37.558594 3.863281-6.367188 3.992188-3.53125 13.898438 4.015625 13.898438 4.09375 0 3.898437-2.550782 11.863281-3.703126 9.238282-1.351562 18.226563.683594 18.617188.683594 4.054687.832032 8.050781-1.765625 8.890625-5.839844.855469-4.066406-1.765625-8.050781-5.828125-8.902343zm0 0"/><path d="m163.3125 281.601562h-26.957031c-4.15625 0-7.527344 3.371094-7.527344 7.527344 0 4.164063 3.371094 7.527344 7.527344 7.527344h26.957031c12.75 0 18.289062 7.867188 20.5625 9.082031 7.550781 4.273438 15.140625-5.738281 8.984375-11.894531-7.890625-7.898438-18.386719-12.242188-29.546875-12.242188zm0 0"/><path d="m148.15625 398.210938c3.863281 6.554687-2.746094-4.660157 0 0zm0 0"/><path d="m506.382812 215.332031-112.367187-194.628906c-7.476563-12.964844-20.882813-20.703125-35.859375-20.703125-14.972656 0-28.382812 7.738281-35.867188 20.703125l-70.65625 122.386719v-11.183594c0-23.222656-25.542968-41.417969-58.152343-41.417969h-135.730469c-8.039062 0-14.324219 5.308594-14.324219 12.082031.070313 2.960938-1.492187 21.015626 8.902344 46.839844 1.847656 4.597656 3.945313 9.015625 6.273437 13.230469v65.746094c-33.953124 13.039062-32.453124 61.441406 1.929688 72.582031 5.136719 19.773438 19.648438 36.675781 35.867188 49.460938l-18.996094 19.820312c-45.066406 16.078125-77.402344 59.195312-77.402344 109.71875 0 17.292969 14.070312 31.363281 31.363281 31.363281h237.097657c17.292968 0 31.367187-14.070312 31.367187-31.363281 0-50.53125-32.347656-93.648438-77.421875-109.726562l-20.394531-21.289063c17.625-14.339844 29.234375-30.609375 33.773437-47.027344 13.960938-3.09375 23.632813-12.828125 27.820313-24.46875h206.917969c14.976562 0 28.382812-7.75 35.859374-20.71875 7.488282-12.964843 7.488282-28.441406 0-41.40625zm-447.78125 67.964844c-5.859374-4.265625-9.675781-11.179687-9.675781-18.96875s3.816407-14.695313 9.675781-18.960937zm30.632813 96.367187c.007813-.019531.039063-.058593.121094-.117187.082031-.125 18.667969-19.492187 18.777343-19.601563.503907.859376.929688 1.578126 1.292969 2.195313-2.191406-3.714844-1.15625-1.957031-.117187-.191406-.117188-.199219 3.558594 6.042969.925781 1.566406-.011719-.019531-.023437-.039063-.035156-.0625 2.339843 3.972656 10.007812 16.980469 30.992187 52.605469-.21875.480468-.390625.972656-.511718 1.472656-32.09375 20.785156-29.746094 19.550781-31.210938 19.550781-2.558594 0-2.476562-1.679687-2.582031-1.796875-.980469-3.089844-4.804688-15.132812-17.664063-55.609375 0 0 0 0 .011719-.011719zm74.066406 71.289063c-.109375.621094-.671875 1.136719-1.324219 1.136719l-23.773437.007812c-1.402344-.128906-1.699219-.492187-1.699219-1.355468v-12.566407l13.410156-8.679687 13.40625 8.679687c-.007812 11.191407.03125 12.394531-.019531 12.777344zm-15.144531-52.742187c-1.925781-3.273438-6.460938-10.964844-16.078125-27.285157 13.390625 4.925781 20.777344 4.855469 35.75-1.296875-.523437 2.941406-9.507813 16.902344-17.914063 31.566406-.808593-1.371093-1.371093-2.332031-1.757812-2.984374zm-30.902344 98.066406h-43.769531v-39.292969c0-4.164063-3.371094-7.527344-7.527344-7.527344-4.164062 0-7.523437 3.363281-7.523437 7.527344v39.292969h-27.070313c-8.992187 0-16.308593-7.316406-16.308593-16.308594 0-41.460938 25.011718-77.191406 60.730468-92.886719 18.316406 57.527344 17.261719 54.789063 17.925782 56.003907 3.058593 5.589843 9.089843 9.050781 15.753906 9.050781 6.9375 0 10.910156-3.671875 11.984375-4.214844.210937 1.15625-1.375 9.40625 5.984375 15.488281zm15.757813 0 9.023437-29.136719h16.308594l9.324219 29.136719zm91.03125-109.195313c35.71875 15.695313 60.730469 51.425781 60.730469 92.886719 0 8.992188-7.316407 16.308594-16.3125 16.308594h-27.066407v-39.292969c0-4.164063-3.363281-7.527344-7.527343-7.527344-4.15625 0-7.527344 3.363281-7.527344 7.527344v39.292969h-42.863282l-10.640624-33.261719c6.855468-6.058594 5.328124-13.898437 5.539062-15.09375 1.144531.574219 5.039062 4.214844 11.984375 4.214844 6.664063 0 12.695313-3.460938 15.757813-9.050781.230468-.421876.421874-.875.5625-1.335938zm-13.582031-7.539062c.042968.019531.070312.0625.121093.121093.011719.011719.011719.011719.011719.011719-.992188 3.113281-14.761719 46.5-17.867188 56.28125v.023438c-.007812.019531-.019531.039062-.019531.058593v.007813c-.007812.023437-.019531.042969-.019531.050781-.007812.011719-.007812.03125-.019531.050782 0 .019531-.011719.050781-.019531.070312-.882813.933594-2.820313 1.195312-4.105469.351562-.296875-.191406-.441407-.285156-.5-.324218.0625.042968.214843.140625.328125.210937-.820313-.527343-6.007813-3.890625-29.222656-18.925781-.121094-.5-.292969-.992188-.515626-1.476562.625-1.058594 32.992188-55.992188 33.0625-56.113282.09375.101563 18.664063 19.46875 18.765626 19.601563zm9.507812-77.4375c-11.964844 32.265625-56.96875 57.167969-71.589844 57.296875h-.089844c-14.394531 0-59.207031-24.648438-71.5-56.824219-4.15625-10.832031-3.132812-5.128906-3.132812-118.710937 9.796875 10.886718 21.679688 19.699218 35.339844 26.113281 5.960937 2.808593 13.226562-.851563 13.6875-7.335938 14.28125 16.589844 35.621094 37.726563 59.253906 48.726563 6.617188 3.050781 14.261719-1.675782 13.671875-8.632813 0-.007812 0-.007812 0-.007812-.140625-1.617188-.621094-2.410157-1.355469-4.628907 8.945313 6.03125 18.363282 11.078126 28.664063 14.714844 0 33.570313.996093 38.65625-2.949219 49.289063zm16.609375-60.941407c-11.359375-2.667968-21.5625-7.613281-31.335937-13.800781-15.683594-9.957031-16.296876-15.023437-23.03125-15.023437-6.375 0-11.050782 5.789062-8.953126 11.691406l2.359376 6.605469c-24.871094-16.109375-45.867188-42.363281-54.570313-54.117188-5.617187-7.609375-18.816406-2.910156-17.050781 6.625l1.476562 7.878907c-13.179687-8.082032-23.828125-18.890626-31.816406-32.320313-9.574219-16.078125-14.734375-36.078125-15.175781-47.921875v-5.238281h135c23.355469 0 43.097656 12.074219 43.097656 26.363281zm1.394531 44.121094c0-7.925781 0-19.53125 0-28.453125 4.023438.769531 7.769532 1.121094 10.898438-2.007812 5.023437 11.144531.464844 24.746093-10.898438 30.460937zm255.375-36.070312c-4.757812 8.257812-13.296875 13.1875-22.824218 13.1875h-204.621094c-.441406-10.257813-4.976563-20.476563-14.269532-28.003906v-61.199219l83.691407-144.96875c4.769531-8.25 13.300781-13.175781 22.832031-13.175781 9.527344 0 18.066406 4.925781 22.824219 13.175781l112.367187 194.628906c4.765625 8.246094 4.765625 18.105469 0 26.355469zm0 0"/><path d="m358.046875 172.617188c15.195313 0 27.992187-11.867188 29.140625-27.019532l3.78125-50.019531c.316406-4.148437-2.789062-7.761719-6.9375-8.074219-4.140625-.3125-7.757812 2.792969-8.070312 6.9375l-3.785157 50.023438c-.558593 7.34375-6.761719 13.097656-14.128906 13.097656-7.394531 0-13.601563-5.777344-14.132813-13.148438-4.632812-64.519531-4.4375-60.996093-4.4375-62.269531 0-10.277343 8.378907-18.644531 18.679688-18.644531 5.824219 0 11.214844 2.648438 14.785156 7.261719 2.542969 3.289062 7.269532 3.890625 10.558594 1.347656s3.890625-7.269531 1.347656-10.558594c-6.441406-8.328125-16.171875-13.105469-26.691406-13.105469-19.535156 0-35.066406 16.613282-33.644531 36.15625l4.386719 60.890626c1.097656 15.210937 13.898437 27.125 29.148437 27.125zm0 0"/><path d="m358.15625 184.191406c-18.230469 0-33.058594 14.832032-33.058594 33.0625 0 18.226563 14.828125 33.058594 33.058594 33.058594s33.0625-14.832031 33.0625-33.058594c0-18.230468-14.832031-33.0625-33.0625-33.0625zm0 51.066406c-9.929688 0-18.003906-8.074218-18.003906-18.003906 0-9.929687 8.078125-18.003906 18.003906-18.003906 9.929688 0 18.007812 8.074219 18.007812 18.003906 0 9.929688-8.078124 18.003906-18.007812 18.003906zm0 0"/></symbol><symbol id="agenda" viewBox="-34 0 512 512"><title>agenda</title><path d="m444.902344 130.8125v-46.382812c0-12.792969-9.097656-23.953126-21.632813-26.527344l-28.355469-5.820313v-7.144531c0-24.777344-20.15625-44.9375-44.9375-44.9375h-306.320312c-10.078125 0-18.277344 8.199219-18.277344 18.277344v54.835937h-17.792968c-4.191407 0-7.585938 3.394531-7.585938 7.585938 0 4.1875 3.394531 7.582031 7.585938 7.582031h17.792968v54.953125h-17.792968c-4.191407 0-7.585938 3.394531-7.585938 7.582031 0 4.191406 3.394531 7.585938 7.585938 7.585938h17.792968v54.953125h-17.792968c-4.191407 0-7.585938 3.394531-7.585938 7.582031 0 4.191406 3.394531 7.585938 7.585938 7.585938h17.792968v54.953124h-17.792968c-4.191407 0-7.585938 3.394532-7.585938 7.585938 0 4.1875 3.394531 7.582031 7.585938 7.582031h17.792968v54.953125h-17.792968c-4.191407 0-7.585938 3.394532-7.585938 7.585938 0 4.1875 3.394531 7.582031 7.585938 7.582031h17.792968v54.953125h-17.792968c-4.191407 0-7.585938 3.394531-7.585938 7.582031 0 4.191407 3.394531 7.585938 7.585938 7.585938h17.792968v54.835937c0 10.078125 8.199219 18.277344 18.277344 18.277344h306.320312c24.78125 0 44.9375-20.160156 44.9375-44.9375v-7.171875l28.472657-5.980469c12.46875-2.617187 21.515625-13.761718 21.515625-26.5v-25.882812c0-4.191406-3.394532-7.585938-7.585938-7.585938-4.1875 0-7.582031 3.394532-7.582031 7.585938v25.882812c0 5.601563-3.980469 10.503906-9.460937 11.652344l-25.359376 5.328125v-80.222656l25.304688 5.195312c3.414062.699219 6.34375 2.855469 8.035156 5.910157 2.027344 3.667968 6.644532 4.996093 10.308594 2.964843s4.992188-6.644531 2.960938-10.308593c-3.644532-6.589844-9.828126-11.328126-17.085938-13.152344 11.917969-3.011719 20.464844-13.859375 20.464844-26.234375v-46.378907c0-12.40625-8.5625-23.246093-20.507813-26.242187 11.941407-2.996094 20.507813-13.855469 20.507813-26.242187v-46.378907c0-12.40625-8.558594-23.246093-20.503906-26.246093 11.9375-2.996094 20.503906-13.855469 20.503906-26.242188zm-345.285156 366.019531h-55.960938c-1.710938 0-3.105469-1.394531-3.105469-3.105469v-54.839843h16.589844c4.191406 0 7.585937-3.394531 7.585937-7.582031 0-4.191407-3.394531-7.585938-7.585937-7.585938h-16.589844v-54.949219h16.589844c4.191406 0 7.585937-3.398437 7.585937-7.585937 0-4.191406-3.394531-7.585938-7.585937-7.585938h-16.589844v-54.949218h16.589844c4.191406 0 7.585937-3.394532 7.585937-7.585938s-3.394531-7.585938-7.585937-7.585938h-16.589844v-54.953124h16.589844c4.191406 0 7.585937-3.394532 7.585937-7.582032 0-4.191406-3.394531-7.585937-7.585937-7.585937h-16.589844v-54.949219h16.589844c4.191406 0 7.585937-3.398438 7.585937-7.585938 0-4.191406-3.394531-7.585937-7.585937-7.585937h-16.589844v-54.949219h16.589844c4.191406 0 7.585937-3.398437 7.585937-7.585937 0-4.191407-3.394531-7.585938-7.585937-7.585938h-16.589844v-54.835937c0-1.710938 1.390625-3.105469 3.105469-3.105469h55.960938zm280.128906-438.5625v296.597657 112.199218c0 16.414063-13.355469 29.765625-29.769532 29.765625h-235.1875v-481.660156h235.1875c16.414063 0 29.769532 13.351563 29.769532 29.765625zm49.988281 223.894531v46.378907c0 5.601562-3.980469 10.503906-9.460937 11.65625l-25.359376 5.324219v-80.222657l25.304688 5.195313c5.511719 1.132812 9.515625 6.039062 9.515625 11.667968zm0-98.867187v46.378906c0 5.601563-3.980469 10.503907-9.460937 11.65625l-25.359376 5.324219v-80.222656l25.304688 5.199218c5.511719 1.128907 9.515625 6.039063 9.515625 11.664063zm0-52.484375c0 5.601562-3.980469 10.503906-9.460937 11.652344l-25.359376 5.328125v-80.222657l25.304688 5.195313c5.515625 1.132813 9.515625 6.039063 9.515625 11.664063zm0 0"/><path d="m335.941406 73.113281h-179.589844c-4.1875 0-7.585937 3.394531-7.585937 7.585938 0 4.1875 3.398437 7.585937 7.585937 7.585937h179.589844c4.191406 0 7.585938-3.398437 7.585938-7.585937 0-4.191407-3.394532-7.585938-7.585938-7.585938zm0 0"/><path d="m335.941406 113.566406h-179.589844c-4.1875 0-7.585937 3.398438-7.585937 7.585938 0 4.191406 3.398437 7.585937 7.585937 7.585937h179.589844c4.191406 0 7.585938-3.394531 7.585938-7.585937 0-4.1875-3.394532-7.585938-7.585938-7.585938zm0 0"/><path d="m335.941406 154.023438h-179.589844c-4.1875 0-7.585937 3.394531-7.585937 7.585937 0 4.1875 3.398437 7.582031 7.585937 7.582031h179.589844c4.191406 0 7.585938-3.394531 7.585938-7.582031 0-4.191406-3.394532-7.585937-7.585938-7.585937zm0 0"/><path d="m335.941406 424.042969h-179.589844c-4.1875 0-7.585937 3.394531-7.585937 7.585937 0 4.1875 3.398437 7.582032 7.585937 7.582032h179.589844c4.191406 0 7.585938-3.394532 7.585938-7.582032 0-4.191406-3.394532-7.585937-7.585938-7.585937zm0 0"/></symbol><symbol id="logic" viewBox="-66 0 512 512.00101"><title>logic</title><path d="m212.363281 113.839844c0 4.230468-3.429687 7.660156-7.660156 7.660156s-7.660156-3.429688-7.660156-7.660156c0-4.230469 3.429687-7.660156 7.660156-7.660156s7.660156 3.429687 7.660156 7.660156zm0 0"/><path d="m128.589844 283.652344v7.199218c0 9.777344 7.957031 17.734376 17.738281 17.734376h99.335937c4.203126 0 7.605469-3.402344 7.605469-7.601563 0-4.203125-3.402343-7.605469-7.605469-7.605469h-99.335937c-1.371094 0-2.527344-1.160156-2.527344-2.527344v-7.199218c0-1.367188 1.15625-2.527344 2.527344-2.527344h151.824219c1.371094 0 2.53125 1.160156 2.53125 2.527344v7.199218c0 1.367188-1.160156 2.527344-2.53125 2.527344h-22.070313c-4.199219 0-7.605469 3.402344-7.605469 7.605469 0 4.199219 3.40625 7.601563 7.605469 7.601563h22.070313c9.78125 0 17.738281-7.957032 17.738281-17.734376v-7.199218c0-8.535156-6.0625-15.679688-14.109375-17.359375.4375-2.617188.1875-3.410157.261719-10.101563 0-9.78125-7.957031-17.738281-17.738281-17.738281h-1.703126v-107.9375h18.949219c8.378907 0 15.195313-6.816406 15.195313-15.1875 0-.5-.023438-1.011719-.078125-1.53125-1.417969-14.132813-8.117188-28.25-19.367188-40.828125-2.800781-3.128906-7.609375-3.402344-10.738281-.597656-3.132812 2.800781-3.398438 7.605468-.597656 10.734375 9.089844 10.164062 14.476562 21.300781 15.585937 32.199219h-20.941406c-4.035156-17.75-13.046875-30.769532-26.894531-38.777344-12.003906-6.945313-25.230469-8.71875-36.148438-9.203125l-.007812-18.988281c15.128906 1.519531 32.152344 7.628906 46.703125 16.761718 3.554687 2.230469 8.25 1.160156 10.484375-2.398437 2.230468-3.558594 1.15625-8.25-2.402344-10.484375-19.789062-12.417969-43.578125-19.085938-54.796875-19.085938-8.375 0-15.1875 6.816406-15.1875 15.195313v21.8125c-6.695313 3.503906-11.652344 9.066406-12.882813 10.523437l-44.464843 46.898438c-4.957031 5.226562-7.683594 12.074218-7.683594 19.277344 0 19.933593 20.640625 33.691406 38.816406 25.960937 18.441407-7.96875 20.597657-8.414063 25.007813-11.132813-3.511719 4.710938-5.726563 4.269532-16.253906 10.539063-14.140626 8.417969-22.921876 23.851563-22.921876 40.273437v25.976563h-1.800781c-9.78125 0-17.738281 7.957031-17.738281 17.738281.078125 6.710938-.171875 7.492188.261719 10.101563-8.046875 1.679687-14.109375 8.824219-14.109375 17.359375zm48.59375-71.175782c0-11.089843 5.9375-21.515624 15.496094-27.207031 3.085937-1.835937 6.191406-3.523437 9.238281-5.011719 10.804687-5.28125 17.789062-16.527343 17.789062-28.648437v-7.09375c0-6.191406-7.035156-9.789063-12.058593-6.164063l-12.890626 9.3125c-3.96875 2.867188-6.121093 3.113282-24.5625 11.140626-12.230468 5.199218-23.695312-10.707032-14.144531-20.78125l44.628907-47.074219c.121093-.128907.242187-.261719.355468-.398438 2.335938-2.84375 8.3125-8.152343 12.269532-8.152343 24.636718.535156 50.308593 6.492187 54.089843 46.523437v109.53125h-90.210937zm-19.535156 43.714844c0-1.371094 1.15625-2.527344 2.527343-2.527344h124.128907c1.371093 0 2.53125 1.15625 2.53125 2.527344v7.195313c0 1.371093-1.160157 2.53125-2.53125 2.53125h-124.128907c-1.371093 0-2.527343-1.160157-2.527343-2.53125zm0 0"/><path d="m206.433594.00390625-1.011719-.00390625c-106.847656 0-189.34375 95.566406-172.757813 201.984375-30.253906 91.433594-32.664062 90.984375-32.664062 103.46875 0 23.171875 17.835938 42.136719 40.605469 43.171875.265625.011719-.285157.003906 13.214843.03125v20.703125c0 4.199219 3.40625 7.605469 7.605469 7.605469s7.605469-3.40625 7.605469-7.605469v-28.292969c0-4.195312-3.398438-7.59375-7.589844-7.605468l-20.300781-.035157c-14.554687-.746093-25.933594-13-25.933594-27.972656 0-8.375.816407-5.535156 32.46875-100.375.402344-1.1875.503907-2.457031.296875-3.695313-16.367187-97.859374 59.34375-186.175781 157.449219-186.175781l.921875.003907c103.824219.589843 183.019531 97.960937 151.320312 207.851562-4.269531 14.609375-10.59375 28.542969-18.800781 41.414062-12.238281 19.191407-18.707031 41.652344-18.707031 64.953126v164.519531c0 1.570312-1.277344 2.84375-2.84375 2.84375h-154.964844c-1.570312 0-2.847656-1.273438-2.847656-2.84375v-18.839844c0-24.867187-22.316406-44.261719-47.339844-40.070313l-17.46875 2.925782c-14.203125-.316406-25.664062-11.96875-25.664062-26.25v-11.9375c0-4.199219-3.402344-7.605469-7.601563-7.605469-4.203125 0-7.605469 3.40625-7.605469 7.605469v11.9375c0 22.867187 18.601563 41.464844 41.464844 41.464844 2.210938 0 18.78125-3.5 23.65625-3.5 13.976563 0 25.351563 11.410156 25.351563 25.429687v18.839844c0 9.953125 8.097656 18.050781 18.050781 18.050781h154.96875c9.953125 0 18.050781-8.097656 18.050781-18.050781v-164.523438c0-20.398437 5.644531-40.027343 16.320313-56.773437 75.777344-118.820313-6.71875-271.863282-145.25-272.64843775zm0 0"/></symbol><symbol id="conversation" viewBox="-9 0 511 512"><title>conversation</title><path d="m119.75 420.4375c.023438-.035156.042969-.070312.054688-.09375.011718-.019531.023437-.039062.035156-.058594-.023438.042969-.058594.101563-.089844.152344zm0 0"/><path d="m119.609375 420.378906c.011719.023438.023437.042969.03125.058594-.019531-.035156-.039063-.070312-.058594-.101562.007813.011718.015625.027343.027344.042968zm0 0"/><path d="m177.472656 398.058594-14.539062-15.171875c13.007812-10.929688 21.710937-23.214844 25.410156-35.667969 13.765625-3.488281 23.984375-15.992188 23.984375-30.84375 0-14.097656-9.214844-26.082031-21.949219-30.242188v-8.535156h1.894532c6.117187 0 11.089843-4.972656 11.089843-11.078125v-50.871093c0-9.175782-4.652343-17.296876-11.710937-22.121094v-3.265625c0-6.207031-5.554688-11.0625-12.644532-11.0625h-102.460937c-25.640625 0-45.734375 14.863281-45.734375 33.832031v52.414062c0 7.8125 6.617188 14.140626 15.652344 15.601563v6.039063c-11.378906 4.84375-19.390625 16.152343-19.390625 29.289062 0 13.808594 8.84375 25.589844 21.175781 29.972656 3.679688 13.195313 12.976562 26.25 27.085938 37.710938l-13.457032 14.039062h-.011718c-20.445313 7.421875-38.0625 21.910156-49.164063 41.34375-2.066406 3.609375-.8125 8.203125 2.796875 10.269532 3.609375 2.054687 8.203125.800781 10.257812-2.808594 8.132813-14.230469 20.417969-25.289063 34.828126-31.996094l13.042968 41.109375c2.402344 7.363281 13.238282 12.195313 22.152344 7.269531.179688 3.820313 1.84375 7.25 4.429688 9.738282l-7.316407 23.652343h-31.523437v-29.203125c0-4.152344-3.367188-7.519531-7.519532-7.519531-4.15625 0-7.523437 3.367187-7.523437 7.519531v29.203125h-19.605469c-6.167968 0-11.179687-5.011719-11.179687-11.179687 0-4.320313.359375-8.664063 1.0625-12.90625.691406-4.089844-2.078125-7.96875-6.179688-8.652344-4.101562-.683594-7.96875 2.085938-8.652343 6.1875-.84375 5.042969-1.273438 10.21875-1.273438 15.371094 0 14.460937 11.761719 26.222656 26.222656 26.222656h185.957032c14.460937 0 26.210937-11.761719 26.210937-26.222656 0-40.1875-25.640625-74.503906-61.417969-87.4375zm12.90625-95.230469c4.183594 3.046875 6.910156 7.980469 6.910156 13.546875s-2.726562 10.507812-6.910156 13.566406zm-143.914062 24.808594c-5.808594-6.414063-5.796875-16.121094 0-22.523438zm118.996094 79.625c-5.636719 17.753906-7.851563 24.734375-13.628907 42.917969-.800781.289062-23.390625-14.601563-23.492187-14.667969v-.011719c-.828125 1.40625 12.585937-21.359375 24.4375-41.472656zm-56.152344-4.378907c7.285156 2.074219 12.421875 2.117188 21.378906-1.003906-7.90625 13.417969-10.230469 17.355469-10.816406 18.351563 0 0-.019532.035156-.066406.113281-.023438.039062-.042969.070312-.054688.097656v-.003906c0 .003906-.003906.007812-.007812.011719-.011719.023437-.023438.039062-.03125.050781.003906 0 .003906-.003906.007812-.007812-.003906.003906-.007812.007812-.011719.015624-.011719.023438-.015625.03125-.011719.019532-.003906-.003906-.007812-.011719-.019531-.03125.003907.003906.003907.007812.007813.007812-.015625-.019531-.023438-.039062-.035156-.058594-.003907 0-.003907-.003906-.007813-.007812-.011719-.019531-.023437-.042969-.035156-.058594-.007813-.015625-.019531-.035156-.03125-.058594 0 .007813.003906.011719.007812.015626-.019531-.035157-.035156-.058594-.042969-.074219.003907.007812.007813.015625.011719.023437-.511719-.871094-2.660156-4.523437-10.242187-17.402344zm10.398437 44.953126 8.894531 5.765624c0 .222657 0 8.542969 0 8.410157h-17.800781c0-.261719 0-8.921875 0-8.410157zm68.15625-235.433594c.824219 2.824218.296875.398437.460938 50.15625-5.460938 0-12.765625 0-15.882813 0-6.457031 0-11.714844-5.253906-11.714844-11.710938v-4.984375c10.59375-8.890625 21.441407-20.796875 27.136719-33.460937zm-142.007812 52.550781v-51.921875c0-5.703125 4.402343-10.910156 11.199219-14.386719 5.34375-2.738281 12.164062-4.402343 19.492187-4.402343h100.066406c-.136719 2.015624 1.019531 6.828124-5.136719 17.117187-34.714843 58.273437-121.25 57.339844-125.621093 53.59375zm18.808593 82.699219c-4.351562-9.84375-3.15625-10.640625-3.15625-66.28125 1.132813-.171875 43.019532 2.34375 84.789063-24.820313 2.628906 12.023438 13.347656 21.046875 26.144531 21.046875h2.898438v56.085938c0 27.675781-41.867188 55.597656-56.917969 55.640625-11.542969-.039063-43.691406-18.914063-53.757813-41.671875zm22.902344 102.546875c-.058594-.1875-10.886718-34.3125-13.625-42.9375l12.683594-13.234375c.0625.101562 24.988281 42.40625 24.4375 41.472656v.011719c-24.613281 15.941406-22.691406 14.921875-23.496094 14.6875zm21.078125 46.476562 6.078125-19.621093h10.40625l6.277344 19.621093zm104.035157.003907h-19.609376v-29.207032c0-4.152344-3.367187-7.519531-7.519531-7.519531-4.152343 0-7.519531 3.367187-7.519531 7.519531v29.203125h-30.832031l-7.667969-23.992187c2.386719-2.445313 3.917969-5.746094 4.089844-9.394532 8.929687 4.953126 19.773437.015626 22.152344-7.269531l13.054687-41.132812c26.570313 12.414062 45.023437 39.394531 45.023437 70.613281 0 6.164062-5.003906 11.179688-11.171874 11.179688zm0 0"/><path d="m160.355469 316.519531c0 4.214844-3.417969 7.632813-7.636719 7.632813-4.214844 0-7.632812-3.417969-7.632812-7.632813 0-4.214843 3.417968-7.632812 7.632812-7.632812 4.21875 0 7.636719 3.417969 7.636719 7.632812zm0 0"/><path d="m141.949219 298.140625c5.132812-1.050781 14.992187-1.640625 19.585937 1.246094 1.242188.785156 2.628906 1.15625 3.996094 1.15625 7.527344 0 10.378906-9.882813 4.011719-13.886719-11.183594-7.03125-28.691407-3.652344-30.648438-3.246094-4.0625.847656-6.664062 4.820313-5.824219 8.882813.839844 4.0625 4.8125 6.675781 8.878907 5.847656zm0 0"/><path d="m94.3125 316.519531c0 4.214844-3.417969 7.632813-7.632812 7.632813-4.214844 0-7.632813-3.417969-7.632813-7.632813 0-4.214843 3.417969-7.632812 7.632813-7.632812 4.214843 0 7.632812 3.417969 7.632812 7.632812zm0 0"/><path d="m93.4375 298.136719c4.058594.84375 8.039062-1.765625 8.886719-5.828125.847656-4.066406-1.761719-8.050782-5.828125-8.898438-1.960938-.40625-19.464844-3.785156-30.648438 3.246094-3.515625 2.210938-4.574218 6.851562-2.363281 10.367188 2.203125 3.511718 6.847656 4.578124 10.367187 2.363281 4.59375-2.882813 14.449219-2.296875 19.585938-1.25zm0 0"/><path d="m119.699219 368.945312c22.039062 0 29.046875-29.726562 14.683593-29.726562-4.152343 0-7.519531 3.367188-7.519531 7.519531 0 3.949219-3.214843 7.164063-7.164062 7.164063s-7.160157-3.214844-7.160157-7.164063c0-4.152343-3.367187-7.519531-7.523437-7.519531-14.3125 0-7.371094 29.726562 14.683594 29.726562zm0 0"/><path d="m117.699219 142.046875h4.894531c-2.628906 5.695313-6.355469 10.75-9.875 14.75-4.171875 4.746094-4.542969 11.394531-.925781 16.546875 2.589843 3.710938 6.621093 5.746094 10.851562 5.746094 1.664063 0 3.359375-.3125 5.011719-.960938 20.757812-8.113281 36.179688-23.898437 45.65625-36.082031h94.46875c10.828125 0 20.054688-6.988281 23.382812-16.703125h28.386719c18.460938 23.730469 42.097657 37.03125 50.671875 37.03125 4.230469 0 8.261719-2.035156 10.847656-5.738281 3.621094-5.164063 3.25-11.8125-.921874-16.554688-3.519532-4-7.25-9.042969-9.867188-14.738281h4.882812c13.636719 0 24.738282-11.101562 24.738282-24.738281v-11.632813c0-4.152344-3.371094-7.519531-7.519532-7.519531-4.164062 0-7.523437 3.367187-7.523437 7.519531v11.632813c0 5.34375-4.351563 9.695312-9.695313 9.695312-30.90625 0-51.5 0-82.65625 0v-23.0625h66.28125c4.152344 0 7.519532-3.367187 7.519532-7.519531 0-4.164062-3.367188-7.519531-7.519532-7.519531h-66.28125v-19.054688h66.28125c4.152344 0 7.519532-3.367187 7.519532-7.519531 0-4.160156-3.367188-7.519531-7.519532-7.519531h-66.519531c-1.625-12.0625-11.984375-21.398438-24.488281-21.398438h-48.121094c1.542969-1.054687 3.410156-1.664062 5.425782-1.664062h150.078124c5.34375 0 9.695313 4.339843 9.695313 9.683593v34.164063c0 4.160156 3.359375 7.519531 7.523437 7.519531 4.148438 0 7.519532-3.359375 7.519532-7.519531v-34.164063c0-13.636718-11.101563-24.726562-24.738282-24.726562h-150.078124c-10.832032 0-20.058594 6.988281-23.386719 16.707031h-84c-13.636719 0-24.738281 11.097657-24.738281 24.734375v75.878906c0 13.636719 11.101562 24.726563 24.738281 24.726563zm236.449219-16.703125c2.074218 6.445312 5.523437 12.914062 10.285156 19.25-9.945313-5.070312-18.359375-12.230469-25.007813-19.25zm-225.71875 35.96875c4.761718-6.347656 8.210937-12.804688 10.289062-19.265625h14.730469c-6.648438 7.019531-15.0625 14.191406-25.019531 19.265625zm-20.425782-119.871094c0-5.34375 4.351563-9.695312 9.695313-9.695312h150.082031c4.171875 0 7.730469 2.648437 9.09375 6.359375.984375 2.6875.605469 75.574219.59375 79.214843 0 5.308594-4.308594 9.6875-9.6875 9.6875h-150.082031c-5.34375 0-9.695313-4.34375-9.695313-9.6875zm0 0"/><path d="m134.074219 69.851562h117.320312c4.164063 0 7.523438-3.359374 7.523438-7.519531 0-4.152343-3.359375-7.523437-7.523438-7.523437-10.015625 0-104.171875 0-117.320312 0-4.148438 0-7.519531 3.371094-7.519531 7.523437 0 4.160157 3.371093 7.519531 7.519531 7.519531zm0 0"/><path d="m134.074219 103.945312h117.320312c4.164063 0 7.523438-3.359374 7.523438-7.523437 0-4.148437-3.359375-7.519531-7.523438-7.519531-14.386719 0-104.0625 0-117.320312 0-4.148438 0-7.519531 3.371094-7.519531 7.519531 0 4.164063 3.371093 7.523437 7.519531 7.523437zm0 0"/><path d="m366.804688 344.277344c0-4.152344-3.367188-7.519532-7.519532-7.519532s-7.519531 3.367188-7.519531 7.519532c0 11.246094 9.148437 20.394531 20.394531 20.394531s20.394532-9.148437 20.394532-20.394531c0-4.152344-3.367188-7.519532-7.519532-7.519532-4.15625 0-7.523437 3.367188-7.523437 7.519532 0 2.953125-2.402344 5.355468-5.351563 5.355468-2.953125 0-5.355468-2.402343-5.355468-5.355468zm0 0"/><path d="m412.886719 316.007812c0 4.222657-3.421875 7.648438-7.648438 7.648438-4.222656 0-7.644531-3.425781-7.644531-7.648438 0-4.222656 3.421875-7.648437 7.644531-7.648437 4.226563 0 7.648438 3.425781 7.648438 7.648437zm0 0"/><path d="m346.726562 316.007812c0 4.222657-3.425781 7.648438-7.648437 7.648438s-7.648437-3.425781-7.648437-7.648438c0-4.222656 3.425781-7.648437 7.648437-7.648437s7.648437 3.425781 7.648437 7.648437zm0 0"/><path d="m489.929688 374.160156c-18.152344-13.101562-25.085938-30.011718-27.71875-40.445312 6.703124-12.652344 4.164062-28.4375-6.65625-38.335938 1.824218-2.417968 2.90625-5.445312 2.90625-8.726562v-43.757813c0-33.039062-26.101563-59.925781-58.179688-59.925781h-56.242188c-15.179687 0-29.570312 6.019531-40.519531 16.949219-10.582031 10.574219-17.660156 25.886719-17.660156 45.902343v.015626c0 2.074218.003906 11.222656.011719 45.511718-9.425782 5.542969-15.773438 15.792969-15.773438 27.496094 0 8.882812 3.664063 16.921875 9.550782 22.710938-3.816407 9.992187-11.148438 22.421874-25.257813 32.605468-3.898437 2.8125-5.089844 8.101563-2.769531 12.300782 2.949218 5.332031 13.003906 20.574218 34.863281 28.902343-13.660156 11.449219-21.210937 28.0625-21.210937 45.398438v33.359375c0 9.855468 8.023437 17.878906 17.878906 17.878906h178.007812c9.867188 0 17.886719-8.023438 17.886719-17.878906v-33.359375c0-17.371094-7.574219-33.976563-21.210937-45.398438 21.859374-8.328125 31.914062-23.570312 34.871093-28.914062 2.304688-4.191407 1.117188-9.46875-2.777343-12.289063zm-46.980469-41.050781v-28.515625c10.535156 6.601562 10.550781 21.90625 0 28.515625zm-98.910157-135.097656h56.242188c23.886719 0 43.140625 20.242187 43.140625 44.882812v43.027344c-.160156-.011719-.3125-.019531-.472656-.03125-5.855469-.390625-11.261719-3.128906-15.039063-7.46875-3.488281-4.015625-3.679687-6.503906-10-20.035156-2.144531-4.804688-6.738281-7.792969-12-7.792969-5.566406 0-10.410156 3.371094-12.34375 8.585938-2.449218 6.597656-6.378906 12.574218-11.683594 17.757812-2.96875 2.90625-3.019531 7.671875-.109374 10.640625 2.898437 2.964844 7.660156 3.015625 10.628906.117187 5.796875-5.675781 10.347656-12.101562 13.566406-19.171874 4.085938 7.96875 5.1875 15.398437 14.089844 23.242187-10.953125-4.292969-24.917969-1.601563-26.660156-1.238281-4.058594.847656-6.660157 4.820312-5.820313 8.882812.835937 4.0625 4.816406 6.671875 8.875 5.84375 5.148437-1.050781 15.03125-1.640625 19.636719 1.253906 6.566406 4.128907 14.464844-3.324218 10.5-10.148437.4375.242187.871094.5 1.320312.722656v39.097657c0 29.0625-43.574218 55.753906-57.027344 55.753906-9.933593 0-37.574218-15.125-50.359374-35.246094 0-10.976562 0-42.03125 0-52.554688 13.675781 4.597657 28.746093 4.941407 43.160156.519532 3.96875-1.210938 6.207031-5.414063 4.992187-9.382813-1.222656-3.972656-5.425781-6.207031-9.394531-4.996093-11.5 3.519531-23.835938 3.25-35.207031-.820313-3.542969-1.269531-7.445313-.988281-10.226563.332031-4.882812 2.113282-8.304687 6.957032-8.363281 12.613282 0 60.953124.203125 56.839843-.382813 57.71875-.410156.621093-1.113281 1.03125-1.902343 1.03125-1.265625 0-2.289063-1.03125-2.289063-2.285157 0-36.242187 0-73.085937-.007812-113.5625 0-30.109375 21.71875-47.289062 43.136718-47.289062zm4.210938 206.804687v-4.773437c8.585938 4.34375 16.707031 6.929687 22.632812 6.929687 6.519532 0 15.683594-3.117187 25.1875-8.273437v6.117187l-20.34375 30.632813c-.570312.863281-2.136718 1.617187-3.570312 1.734375-1.433594-.117188-2.988281-.871094-3.558594-1.734375-.019531-.027344-.144531-.214844-.15625-.234375-.367187-.554688-19.808594-29.824219-20.191406-30.398438zm-80.898438-21.644531c8.253907-6.691406 14.332032-14.007813 18.820313-21.148437 2.347656 12.660156 17.234375 18.359374 27.394531 10.707031 5.710938 6.921875 12.515625 12.96875 19.644532 18.117187v10.71875h-8.753907c-1.804687 0-3.632812.082032-5.386719.253906-4.8125.429688-9.507812 1.457032-14 3.011719-21.457031-3.523437-32.71875-14.808593-37.71875-21.660156zm196.65625 77.589844v33.359375c0 1.5625-1.273437 2.835937-2.847656 2.835937h-178.007812c-1.5625 0-2.835938-1.273437-2.835938-2.835937v-33.359375c0-24.832031 19.910156-44.152344 44.140625-44.152344h13.574219c.003906 0 .003906 0 .003906.003906.003906.003907.003906.007813.011719.015625v.003906c.007813.007813.015625.019532.023437.035157.007813.007812.015626.019531.019532.027343v.003907c.007812.007812.011718.015625.015625.023437 0-.003906 0-.007812-.003907-.007812.015626.019531.03125.042968.050782.070312-.003906 0-.007813-.003906-.007813-.007812.011719.015625.023438.035156.035157.054687-.007813-.011719-.015626-.023437-.019532-.035156.023438.035156.050782.078125.082032.128906.019531.03125.039062.058594.054687.078125 0 .007813.003906.011719.007813.015625 0 0-.003907-.003906-.003907-.003906.023438.03125.027344.039063.023438.03125.96875 1.460937 4.789062 7.210937 17.738281 26.71875 7.433594 11.207031 24.726562 11.253906 32.199219.011719 12.949219-19.511719 16.769531-25.265625 17.738281-26.730469 0 0 .003906-.003906.011719-.011719-.003907 0-.003907.003906-.003907.003906.003907-.003906.007813-.007812.007813-.015624.007813-.007813.011719-.015626.019531-.027344-.003906.003906-.003906.007812-.007812.011718.015625-.023437.027344-.039062.039062-.058593.007813-.015625.023438-.03125.035156-.050781.011719-.015626.019532-.03125.03125-.046876-.007812.011719-.015624.019532-.023437.03125.03125-.046874.058594-.085937.078125-.117187-.007812.015625-.015625.023437-.023438.039063.007813-.015626.019532-.03125.03125-.050782.003907 0 .003907-.003906.007813-.007812.039063-.0625.074219-.117188.085937-.132813 14.59375-.066406 17.46875.050781 17.609376.1875 22.570312 2.027344 40.109374 20.699219 40.109374 43.960938zm-24.757812-55.929688c-12.855469-4.449219-22.148438-2.972656-28.136719-3.265625v-12.621094c12.957031-9.753906 25.011719-23.363281 29.730469-38.96875 3.414062-.742187 6.617188-2.042968 9.527344-3.785156 4.15625 11.171875 11.957031 25.09375 26.597656 36.980469-5 6.851563-16.261719 18.140625-37.71875 21.660156zm0 0"/><path d="m338.101562 416.710938c-.003906-.003907-.007812-.007813-.011718-.015626.003906.007813.007812.011719.011718.015626zm0 0"/></symbol></svg>